# xmcd
#
# Track frame offsets:
#	150
#	16347
#	32556
#	48928
#	51190
#	67315
#	86449
#	103447
#	118290
#	134765
#	153635
#	154572
#	176610
#	191837
#	206637
#
# Disc length: 3191 seconds
#
# Revision: 0
# Processed by: cddbd v1.5.2PL0 Copyright (c) Steve Scherf et al.
# Submitted via: audiograbber 1.83.01
#
DISCID=de0c750f
DTITLE=Keith Urban - Graffiti U
DYEAR=2018
DGENRE=Country
TTITLE0=Coming Home (feat. Julia Michaels)
TTITLE1=Never Comin Down
TTITLE2=Same Heart
TTITLE3=My Wave (Intro)
TTITLE4=My Wave (feat. Shy Carter)
TTITLE5=Parallel Line
TTITLE6=Drop Top (feat. Kassi Ashton)
TTITLE7=Way Too Long
TTITLE8=Horses (feat. Lindsay Ell)
TTITLE9=Gemini
TTITLE10=Texas Time (Intro)
TTITLE11=Texas Time
TTITLE12=Love The Way It Hurts (So Good)
TTITLE13=Female
TTITLE14=Steal My Thunder
EXTD=
EXTT0=
EXTT1=
EXTT2=
EXTT3=
EXTT4=
EXTT5=
EXTT6=
EXTT7=
EXTT8=
EXTT9=
EXTT10=
EXTT11=
EXTT12=
EXTT13=
EXTT14=
PLAYORDER=
